<svg width="161" height="62" viewBox="0 0 161 62" fill="none" xmlns="http://www.w3.org/2000/svg">
<path d="M52.5472 10.7044C66.1444 15.7484 56.0583 38.5146 42.355 32.8573C30.1029 27.7993 29.736 -2.37569 58.2083 7.86157" stroke="black" stroke-opacity="0.9" stroke-width="10" stroke-linecap="round" stroke-linejoin="round"/>
<path d="M77.6556 56.5816C63.7708 54.7965 60.8702 35.5384 61.7109 35.6063C75.6622 40.1682 89.3489 38.4696 90.4112 38.284C92.2122 37.9693 126.857 30.2031 138.246 19.54" stroke="black" stroke-opacity="0.9" stroke-width="10" stroke-linecap="round" stroke-linejoin="round"/>
<path d="M126.185 39.7839C125.782 39.0173 125.172 38.4862 124.346 37.8694C124.031 37.6334 123.68 37.4103 123.343 37.1885C122.456 36.6074 106.909 27.2992 105.071 26.3417C104.185 25.8748 103.277 25.5703 102.075 25.5703C102.059 25.5819 102.042 25.594 102.025 25.6039C102.034 25.594 102.042 25.5819 102.051 25.5703C102.037 25.5871 89.8193 36.0427 89.5742 36.7689" stroke="black" stroke-opacity="0.9" stroke-width="10" stroke-linecap="round" stroke-linejoin="round"/>
<path opacity="0.503384" d="M3 11.3858C3.14019 11.4762 3.2782 11.5705 3.41398 11.6698C4.15504 13.3998 44.8075 40.5739 83.4141 39.7659C120.918 38.9808 153.593 13.0042 157.627 8.77197" stroke="black" stroke-opacity="0.9" stroke-width="5" stroke-linecap="round" stroke-linejoin="round"/>
</svg>
