<svg width="115" height="116" viewBox="0 0 115 116" fill="none" xmlns="http://www.w3.org/2000/svg">
<path d="M23.7353 96.4421C23.5578 96.4422 23.3843 96.3897 23.2367 96.2911C23.0892 96.1926 22.9741 96.0524 22.9062 95.8885C22.8383 95.7245 22.8205 95.5441 22.8552 95.3701C22.8899 95.196 22.9754 95.0362 23.101 94.9107L47.2604 70.7544C51.4727 66.5404 53.1005 61.5309 54.986 55.7292C57.4901 48.0283 60.3269 39.2985 70.0779 30.1941C70.4371 29.854 71.0068 29.8741 71.3447 30.237C71.4251 30.323 71.4878 30.4241 71.5292 30.5344C71.5705 30.6447 71.5897 30.7621 71.5856 30.8798C71.5815 30.9975 71.5543 31.1133 71.5055 31.2205C71.4566 31.3277 71.3871 31.4242 71.301 31.5045C61.8899 40.2936 59.1282 48.7883 56.6928 56.2836C54.8179 62.0546 53.0465 67.5057 48.5293 72.0229L24.3696 96.1794C24.2864 96.2627 24.1875 96.3289 24.0787 96.374C23.9698 96.4191 23.8531 96.4422 23.7353 96.4421ZM1.53133 73.3408L0.262695 72.0724L24.4188 47.9128C28.9359 43.3936 34.389 41.6214 40.1589 39.7457C47.6531 37.3103 56.1478 34.5486 64.9369 25.1382C65.2769 24.7783 65.8463 24.7572 66.2038 25.0956C66.2899 25.1759 66.3595 25.2724 66.4083 25.3796C66.4571 25.4868 66.4844 25.6026 66.4884 25.7203C66.4924 25.838 66.4732 25.9554 66.4319 26.0657C66.3905 26.176 66.3278 26.277 66.2473 26.3631C57.1429 36.1114 48.4151 38.9493 40.7142 41.4523C34.9127 43.3386 29.9012 44.9671 25.6872 49.1812L1.53133 73.3408Z" fill="black"/>
<path d="M23.7357 96.4423C23.6178 96.4424 23.5012 96.4192 23.3923 96.3741C23.2835 96.329 23.1846 96.2629 23.1013 96.1795L0.262814 73.341C0.179496 73.2577 0.1134 73.1589 0.0683054 73.0501C0.0232106 72.9412 0 72.8246 0 72.7068C0 72.589 0.0232106 72.4724 0.0683054 72.3636C0.1134 72.2547 0.179496 72.1559 0.262814 72.0726C0.346099 71.9893 0.444986 71.9232 0.553824 71.8781C0.662662 71.833 0.779319 71.8098 0.897131 71.8098C1.01494 71.8098 1.1316 71.833 1.24044 71.8781C1.34928 71.9232 1.44816 71.9893 1.53145 72.0726L24.3698 94.9109C24.4953 95.0363 24.5808 95.1961 24.6155 95.3702C24.6502 95.5442 24.6325 95.7246 24.5646 95.8886C24.4967 96.0525 24.3817 96.1926 24.2341 96.2912C24.0866 96.3898 23.9131 96.4423 23.7357 96.4423ZM25.1286 81.2153H25.1268C22.6387 81.2135 19.9455 80.7738 17.1262 79.9063C16.9865 79.8639 16.8593 79.7879 16.7558 79.685C16.6522 79.5821 16.5755 79.4554 16.5322 79.316C10.6288 60.2973 26.4585 54.7762 26.6198 54.7228C26.7618 54.6744 26.9138 54.6628 27.0615 54.6891C27.2092 54.7154 27.3479 54.7788 27.4644 54.8734C27.5814 54.9671 27.6731 55.0888 27.7309 55.2272C27.7888 55.3656 27.811 55.5162 27.7956 55.6654C27.6187 57.3765 27.9077 58.6624 28.6509 59.4879C29.5812 60.5201 31.1547 60.7355 32.3112 60.7355C33.7198 60.7355 34.9079 60.422 34.9202 60.4202C35.0724 60.3791 35.2326 60.3788 35.3849 60.4194C35.5372 60.46 35.6761 60.54 35.7875 60.6515C35.899 60.7629 35.979 60.9018 36.0196 61.0541C36.0602 61.2063 36.0599 61.3666 36.0188 61.5188C36.01 61.5574 35.0165 65.3489 36.5777 67.3851C37.3837 68.433 38.7293 68.8483 40.7655 68.6398C41.0792 68.6013 41.3664 68.7327 41.5575 68.9695C41.6516 69.0862 41.7148 69.2247 41.7415 69.3723C41.7681 69.5198 41.7574 69.6717 41.7101 69.814C41.6713 69.9278 37.7867 81.2153 25.1286 81.2153ZM18.1076 78.3296C20.5903 79.0532 22.9506 79.4194 25.127 79.4212C34.0842 79.4212 38.1371 73.1833 39.4742 70.478C37.5661 70.4044 36.1132 69.7297 35.1513 68.4716C33.7391 66.6283 33.8127 63.9966 34.0263 62.4107C33.4578 62.4886 32.8847 62.5284 32.3109 62.5298C30.1311 62.5298 28.4052 61.8937 27.3187 60.6901C26.4708 59.7507 26.0169 58.4946 25.9574 56.943C22.607 58.5586 13.9494 64.2243 18.1076 78.3296ZM71.3152 32.3707C71.1974 32.3709 71.0807 32.3477 70.9718 32.3026C70.863 32.2574 70.7641 32.1912 70.6809 32.1078L64.3274 25.7559C64.2441 25.6726 64.178 25.5737 64.1329 25.4649C64.0878 25.3561 64.0646 25.2394 64.0646 25.1216C64.0646 25.0039 64.0878 24.8872 64.1329 24.7784C64.178 24.6696 64.2441 24.5707 64.3274 24.4874C64.4107 24.4041 64.5096 24.338 64.6184 24.2929C64.7273 24.2478 64.8439 24.2246 64.9617 24.2246C65.0795 24.2246 65.1962 24.2478 65.305 24.2929C65.4139 24.338 65.5128 24.4041 65.596 24.4874L71.9495 30.8394C72.0328 30.9226 72.0989 31.0215 72.144 31.1303C72.1891 31.2391 72.2123 31.3558 72.2123 31.4736C72.2123 31.5914 72.1891 31.708 72.144 31.8168C72.0989 31.9256 72.0328 32.0245 71.9495 32.1078C71.8663 32.1912 71.7675 32.2574 71.6586 32.3026C71.5498 32.3477 71.4331 32.3709 71.3152 32.3707Z" fill="black"/>
<path d="M65.5993 26.6584C65.4814 26.6585 65.3647 26.6353 65.2559 26.5902C65.147 26.545 65.0482 26.4789 64.965 26.3954C64.8816 26.3121 64.8155 26.2133 64.7705 26.1044C64.7254 25.9956 64.7021 25.879 64.7021 25.7612C64.7021 25.6434 64.7254 25.5268 64.7705 25.4179C64.8155 25.3091 64.8816 25.2102 64.965 25.127L67.5038 22.5895C67.5871 22.5062 67.686 22.4401 67.7948 22.395C67.9036 22.3499 68.0203 22.3267 68.1381 22.3267C68.2559 22.3267 68.3726 22.3499 68.4814 22.395C68.5903 22.4401 68.6891 22.5062 68.7724 22.5895C68.8558 22.6728 68.9219 22.7717 68.967 22.8805C69.012 22.9893 69.0353 23.106 69.0353 23.2238C69.0353 23.3416 69.012 23.4583 68.967 23.5671C68.9219 23.676 68.8558 23.7748 68.7724 23.8581L66.2334 26.3954C66.1502 26.4789 66.0514 26.5451 65.9426 26.5902C65.8338 26.6353 65.7171 26.6585 65.5993 26.6584ZM70.6754 31.7327C70.5575 31.7328 70.4408 31.7096 70.332 31.6645C70.2231 31.6194 70.1243 31.5532 70.0411 31.4697C69.9577 31.3864 69.8916 31.2876 69.8465 31.1787C69.8015 31.0699 69.7782 30.9533 69.7782 30.8355C69.7782 30.7177 69.8015 30.6011 69.8465 30.4922C69.8916 30.3834 69.9577 30.2846 70.0411 30.2013L72.5783 27.664C72.6616 27.5807 72.7605 27.5146 72.8693 27.4695C72.9782 27.4244 73.0948 27.4012 73.2126 27.4012C73.3305 27.4012 73.4471 27.4244 73.5559 27.4695C73.6648 27.5146 73.7637 27.5807 73.847 27.664C73.9303 27.7473 73.9964 27.8462 74.0415 27.955C74.0866 28.0638 74.1098 28.1804 74.1098 28.2982C74.1098 28.416 74.0866 28.5327 74.0415 28.6415C73.9964 28.7503 73.9303 28.8492 73.847 28.9324L71.3097 31.4697C71.2265 31.5532 71.1277 31.6194 71.0188 31.6646C70.9099 31.7097 70.7932 31.7328 70.6754 31.7327Z" fill="black"/>
<path d="M73.2122 29.1959C73.0943 29.196 72.9776 29.1728 72.8688 29.1277C72.7599 29.0825 72.6611 29.0164 72.5779 28.9329L67.5036 23.8586C67.4202 23.7753 67.3541 23.6764 67.309 23.5676C67.2639 23.4588 67.2407 23.3421 67.2407 23.2243C67.2407 23.1065 67.2639 22.9898 67.309 22.881C67.3541 22.7722 67.4202 22.6733 67.5036 22.59C67.5868 22.5067 67.6857 22.4406 67.7946 22.3955C67.9034 22.3504 68.0201 22.3271 68.1379 22.3271C68.2557 22.3271 68.3723 22.3504 68.4812 22.3955C68.59 22.4406 68.6889 22.5067 68.7722 22.59L73.8465 27.6645C73.9298 27.7478 73.9959 27.8466 74.041 27.9555C74.0861 28.0643 74.1093 28.1809 74.1093 28.2987C74.1093 28.4165 74.0861 28.5331 74.041 28.642C73.9959 28.7508 73.9298 28.8497 73.8465 28.9329C73.7633 29.0164 73.6644 29.0826 73.5556 29.1277C73.4467 29.1729 73.33 29.196 73.2122 29.1959ZM24.8143 77.2206C24.7634 77.2206 24.7127 77.217 24.6599 77.2067C24.4943 77.1782 24.34 77.1036 24.2148 76.9914C24.0896 76.8792 23.9986 76.734 23.9523 76.5724L23.0375 73.3974L19.8625 72.4829C19.7007 72.4364 19.5552 72.3451 19.443 72.2195C19.3308 72.0939 19.2563 71.9392 19.2282 71.7732C19.1992 71.6074 19.2176 71.4367 19.2811 71.2808C19.3446 71.125 19.4508 70.9901 19.5874 70.8918L22.4207 68.854L22.4662 65.4475C22.4684 65.2828 22.516 65.1218 22.6039 64.9825C22.6917 64.8431 22.8162 64.7306 22.9639 64.6575C23.1114 64.5841 23.2763 64.5527 23.4404 64.5669C23.6046 64.5812 23.7617 64.6404 23.8944 64.738L26.5402 66.6829L29.7695 65.5159C29.9299 65.4585 30.1033 65.4477 30.2696 65.485C30.4359 65.5222 30.5882 65.606 30.7087 65.7264C30.8291 65.847 30.9127 65.9993 30.9499 66.1656C30.9871 66.3318 30.9764 66.5053 30.919 66.6657L29.752 69.8951L31.6987 72.5446C31.796 72.6774 31.8549 72.8345 31.8688 72.9986C31.8827 73.1627 31.8512 73.3275 31.7777 73.4748C31.7046 73.6226 31.5921 73.7472 31.4526 73.835C31.3132 73.9228 31.1522 73.9704 30.9874 73.9725L27.5829 74.0163L25.5415 76.8477C25.4586 76.9631 25.3493 77.057 25.2229 77.1219C25.0965 77.1867 24.9564 77.2206 24.8143 77.2206ZM22.1352 71.2699L24.0119 71.8095C24.1576 71.8517 24.2902 71.9301 24.3974 72.0373C24.5046 72.1445 24.583 72.2771 24.6252 72.4227L25.1648 74.301L26.3915 72.5996C26.473 72.4856 26.5802 72.3924 26.7044 72.3275C26.8287 72.2627 26.9664 72.2281 27.1066 72.2264L29.2195 72.2004L28.0229 70.5705C27.9356 70.4519 27.8789 70.3135 27.8578 70.1677C27.8367 70.022 27.8519 69.8732 27.902 69.7347L28.5818 67.8528L26.7 68.5325C26.5613 68.5822 26.4125 68.5971 26.2668 68.5757C26.121 68.5543 25.9827 68.4974 25.8642 68.41L24.2381 67.2149L24.2101 69.3299C24.2082 69.4702 24.1735 69.6082 24.1087 69.7326C24.0439 69.8571 23.9508 69.9646 23.8369 70.0466L22.1352 71.2699ZM59.9077 46.3395C59.8814 46.3588 57.0392 46.3808 53.547 42.8874C50.1477 39.4874 50.1425 36.6829 50.1441 36.5647C50.1472 36.3287 50.2431 36.1035 50.4111 35.9377C50.579 35.7719 50.8054 35.6789 51.0414 35.6788H51.0519C51.2881 35.6819 51.5136 35.7778 51.6796 35.9459C51.8455 36.1141 51.9385 36.3408 51.9385 36.577C51.9403 36.6452 52.0313 38.8338 54.8157 41.619C57.6419 44.4444 59.9023 44.5442 59.9234 44.5451C60.4157 44.5599 60.8081 44.9674 60.7994 45.459C60.7963 45.6935 60.701 45.9174 60.5341 46.0822C60.3673 46.2469 60.1422 46.3394 59.9077 46.3395Z" fill="black"/>
<path d="M58.7987 42.3862C58.6106 42.3865 58.4272 42.3274 58.2748 42.2173C57.5047 41.6621 56.7804 41.0459 56.1091 40.3747C55.4365 39.7032 54.8195 38.9783 54.264 38.2072C54.1253 38.0139 54.0691 37.7736 54.1075 37.5388C54.146 37.3041 54.276 37.0943 54.4691 36.9554C54.5647 36.8864 54.673 36.8369 54.7877 36.8098C54.9025 36.7827 55.0215 36.7785 55.1379 36.7975C55.2542 36.8164 55.3657 36.8581 55.466 36.9202C55.5662 36.9823 55.6532 37.0636 55.722 37.1593C56.2202 37.8519 56.7739 38.5027 57.3777 39.1054C57.9804 39.7088 58.6308 40.2626 59.3226 40.7613C59.4184 40.83 59.4996 40.917 59.5617 41.0173C59.6238 41.1175 59.6655 41.229 59.6844 41.3454C59.7033 41.4618 59.699 41.5808 59.6718 41.6955C59.6446 41.8102 59.595 41.9184 59.5259 42.014C59.4429 42.1293 59.3337 42.2232 59.2073 42.288C59.0808 42.3527 58.9407 42.3864 58.7987 42.3862ZM75.7513 16.5078C75.5739 16.5079 75.4004 16.4553 75.2528 16.3567C75.1053 16.2582 74.9903 16.118 74.9224 15.9541C74.8545 15.7901 74.8368 15.6097 74.8715 15.4357C74.9062 15.2617 74.9917 15.1018 75.1172 14.9764L89.0717 1.02014C89.155 0.93682 89.2539 0.870724 89.3627 0.82563C89.4715 0.780535 89.5882 0.757324 89.706 0.757324C89.8237 0.757324 89.9404 0.780535 90.0492 0.82563C90.158 0.870724 90.2569 0.93682 90.3402 1.02014C90.4235 1.1034 90.4896 1.20227 90.5347 1.31109C90.5798 1.41991 90.603 1.53655 90.603 1.65434C90.603 1.77214 90.5798 1.88877 90.5347 1.99759C90.4896 2.10641 90.4235 2.20528 90.3402 2.28855L76.3856 16.2451C76.3024 16.3285 76.2036 16.3946 76.0947 16.4397C75.9858 16.4848 75.8692 16.508 75.7513 16.5078Z" fill="black"/>
<path d="M94.78 7.62672C94.6622 7.62682 94.5455 7.60366 94.4367 7.55857C94.3278 7.51348 94.229 7.44735 94.1457 7.36397L89.0714 2.28855C88.9881 2.20528 88.922 2.10641 88.8769 1.99759C88.8318 1.88877 88.8086 1.77214 88.8086 1.65434C88.8086 1.53655 88.8318 1.41991 88.8769 1.31109C88.922 1.20227 88.9881 1.1034 89.0714 1.02014C89.1547 0.93682 89.2535 0.870724 89.3624 0.82563C89.4712 0.780535 89.5878 0.757324 89.7056 0.757324C89.8234 0.757324 89.94 0.780535 90.0489 0.82563C90.1577 0.870724 90.2565 0.93682 90.3398 1.02014L95.4143 6.09534C95.5399 6.22076 95.6254 6.38061 95.6601 6.55465C95.6948 6.7287 95.6771 6.90913 95.6091 7.07309C95.5412 7.23705 95.4262 7.37717 95.2786 7.47573C95.131 7.57428 94.9575 7.62683 94.78 7.62672Z" fill="black"/>
<path d="M80.8261 21.583C80.6486 21.5831 80.4751 21.5306 80.3275 21.432C80.1799 21.3335 80.0649 21.1934 79.997 21.0294C79.9291 20.8654 79.9113 20.685 79.946 20.511C79.9807 20.3369 80.0662 20.1771 80.1918 20.0517L94.1463 6.09535C94.2296 6.01203 94.3284 5.94593 94.4373 5.90083C94.5461 5.85573 94.6628 5.83252 94.7806 5.83252C94.8984 5.83252 95.0151 5.85573 95.1239 5.90083C95.2327 5.94593 95.3316 6.01203 95.4149 6.09535C95.4982 6.17864 95.5643 6.27752 95.6094 6.38636C95.6545 6.4952 95.6777 6.61186 95.6777 6.72967C95.6777 6.84748 95.6545 6.96414 95.6094 7.07298C95.5643 7.18181 95.4982 7.2807 95.4149 7.36399L81.4604 21.3203C81.3772 21.4037 81.2783 21.4698 81.1694 21.5149C81.0606 21.56 80.9439 21.5831 80.8261 21.583Z" fill="black"/>
<path d="M85.9001 16.5081C85.7823 16.5082 85.6656 16.485 85.5568 16.4399C85.4479 16.3949 85.3491 16.3287 85.2658 16.2453L80.1915 11.1699C80.1082 11.0866 80.0421 10.9878 79.997 10.879C79.9519 10.7701 79.9287 10.6535 79.9287 10.5357C79.9287 10.4179 79.9519 10.3013 79.997 10.1925C80.0421 10.0836 80.1082 9.98477 80.1915 9.90151C80.2748 9.81818 80.3737 9.75208 80.4825 9.70698C80.5914 9.66188 80.708 9.63867 80.8258 9.63867C80.9437 9.63867 81.0603 9.66188 81.1691 9.70698C81.278 9.75208 81.3769 9.81818 81.4602 9.90151L86.5345 14.9767C86.66 15.1021 86.7456 15.262 86.7802 15.436C86.8149 15.6101 86.7972 15.7905 86.7293 15.9545C86.6613 16.1184 86.5463 16.2585 86.3987 16.3571C86.2511 16.4556 86.0776 16.5082 85.9001 16.5081Z" fill="black"/>
<path d="M45.302 69.7944C45.1841 69.7945 45.0674 69.7713 44.9586 69.7262C44.8497 69.6811 44.7509 69.6149 44.6677 69.5314C44.5843 69.4482 44.5183 69.3493 44.4732 69.2405C44.4281 69.1317 44.4049 69.015 44.4049 68.8972C44.4049 68.7794 44.4281 68.6628 44.4732 68.554C44.5183 68.4452 44.5843 68.3463 44.6677 68.263C49.5178 63.4129 53.9053 47.8769 53.9491 47.7199C54.0823 47.2451 54.5782 46.9666 55.0548 47.0979C55.2838 47.1622 55.478 47.3147 55.5946 47.522C55.7113 47.7294 55.7408 47.9745 55.6768 48.2036C55.4928 48.8608 51.1174 64.3503 45.9361 69.5317C45.8529 69.615 45.754 69.6812 45.6452 69.7263C45.5364 69.7713 45.4198 69.7945 45.302 69.7944ZM23.7321 91.3643C23.6142 91.3644 23.4975 91.3412 23.3887 91.2961C23.2798 91.251 23.181 91.1848 23.0978 91.1013C23.0145 91.0181 22.9484 90.9192 22.9033 90.8104C22.8582 90.7015 22.835 90.5849 22.835 90.4671C22.835 90.3493 22.8582 90.2327 22.9033 90.1239C22.9484 90.015 23.0145 89.9162 23.0978 89.8329L28.1723 84.7584C28.2556 84.6751 28.3545 84.609 28.4633 84.5639C28.5722 84.5188 28.6888 84.4956 28.8066 84.4956C28.9244 84.4956 29.0411 84.5188 29.1499 84.5639C29.2588 84.609 29.3577 84.6751 29.4409 84.7584C29.5243 84.8417 29.5904 84.9406 29.6355 85.0494C29.6806 85.1582 29.7038 85.2749 29.7038 85.3927C29.7038 85.5105 29.6806 85.6272 29.6355 85.736C29.5904 85.8448 29.5243 85.9437 29.4409 86.027L24.3666 91.1013C24.2834 91.1848 24.1845 91.251 24.0756 91.2961C23.9667 91.3412 23.85 91.3644 23.7321 91.3643Z" fill="black"/>
<path d="M27.5375 52.034C27.4197 52.0341 27.3029 52.0109 27.1941 51.9658C27.0852 51.9207 26.9864 51.8545 26.9032 51.771C26.8199 51.6877 26.7538 51.5889 26.7087 51.4801C26.6636 51.3712 26.6404 51.2546 26.6404 51.1368C26.6404 51.019 26.6636 50.9024 26.7087 50.7936C26.7538 50.6847 26.8199 50.5859 26.9032 50.5026C32.0845 45.3179 47.5758 40.9425 48.233 40.7585C48.7114 40.6192 49.2054 40.9046 49.3387 41.3803C49.4028 41.6094 49.3732 41.8546 49.2566 42.0619C49.14 42.2692 48.9458 42.4218 48.7167 42.486C48.5608 42.5298 33.0222 46.9184 28.172 51.771C28.0888 51.8544 27.9899 51.9206 27.881 51.9657C27.7721 52.0109 27.6554 52.034 27.5375 52.034ZM5.9694 73.6003C5.85156 73.6004 5.73485 73.5772 5.626 73.5321C5.51714 73.487 5.41827 73.4208 5.33508 73.3373C5.25176 73.254 5.18567 73.1552 5.14057 73.0464C5.09548 72.9375 5.07227 72.8209 5.07227 72.7031C5.07227 72.5853 5.09548 72.4687 5.14057 72.3599C5.18567 72.251 5.25176 72.1522 5.33508 72.0689L10.4114 66.9944C10.4947 66.9111 10.5935 66.845 10.7024 66.7999C10.8112 66.7548 10.9278 66.7316 11.0456 66.7316C11.1634 66.7316 11.28 66.7548 11.3889 66.7999C11.4977 66.845 11.5965 66.9111 11.6798 66.9944C11.7631 67.0777 11.8292 67.1765 11.8743 67.2854C11.9194 67.3942 11.9426 67.5109 11.9426 67.6287C11.9426 67.7465 11.9194 67.8632 11.8743 67.972C11.8292 68.0808 11.7631 68.1797 11.6798 68.263L6.60371 73.3373C6.52052 73.4208 6.42165 73.487 6.3128 73.5321C6.20394 73.5772 6.08724 73.6004 5.9694 73.6003Z" fill="black"/>
<path d="M74.4811 22.8519C74.3633 22.852 74.2466 22.8289 74.1377 22.7837C74.0289 22.7386 73.93 22.6724 73.8468 22.5889C73.7635 22.5057 73.6974 22.4068 73.6523 22.298C73.6072 22.1892 73.584 22.0725 73.584 21.9547C73.584 21.8369 73.6072 21.7203 73.6523 21.6115C73.6974 21.5027 73.7635 21.4038 73.8468 21.3205L80.1915 14.9767C80.2748 14.8934 80.3737 14.8273 80.4825 14.7822C80.5914 14.7371 80.708 14.7139 80.8258 14.7139C80.9437 14.7139 81.0603 14.7371 81.1692 14.7822C81.278 14.8273 81.3769 14.8934 81.4602 14.9767C81.5435 15.06 81.6096 15.1589 81.6547 15.2677C81.6998 15.3765 81.723 15.4932 81.723 15.611C81.723 15.7288 81.6998 15.8455 81.6547 15.9543C81.6096 16.0632 81.5435 16.162 81.4602 16.2453L75.1154 22.5889C75.0323 22.6724 74.9334 22.7387 74.8245 22.7838C74.7157 22.8289 74.599 22.8521 74.4811 22.8519Z" fill="black"/>
<path d="M94.2535 77.9103C93.7576 77.9103 93.3477 77.5091 93.3477 77.0133C93.3477 76.5174 93.7401 76.1162 94.2342 76.1162H94.2535C94.4914 76.1163 94.7195 76.2109 94.8877 76.3791C95.0559 76.5473 95.1504 76.7754 95.1505 77.0133C95.1504 77.2511 95.0559 77.4793 94.8877 77.6475C94.7195 77.8157 94.4914 77.9102 94.2535 77.9103Z" fill="black"/>
<path d="M100.075 89.349C98.1934 89.349 96.049 88.3012 94.1809 86.4317C91.9119 84.1607 90.3276 81.019 89.7234 77.5847L86.918 61.6817L88.6843 61.3696L91.4894 77.2728C92.0327 80.3497 93.4379 83.1513 95.4493 85.1628C97.1543 86.8694 99.1275 87.7616 100.582 87.5127C102.043 87.2551 103.583 85.7361 104.603 83.5493C105.805 80.9717 106.168 77.858 105.626 74.7811L102.821 58.8783L104.587 58.5664L107.393 74.4694C107.999 77.9053 107.585 81.3995 106.229 84.3064C104.946 87.0593 102.952 88.9182 100.894 89.2793C100.627 89.3264 100.354 89.349 100.075 89.349ZM104.475 110.498C104.265 110.498 104.061 110.423 103.9 110.288C103.739 110.152 103.631 109.965 103.594 109.757L100.478 92.0862C100.458 91.9702 100.461 91.8513 100.486 91.7364C100.511 91.6214 100.559 91.5125 100.627 91.416C100.694 91.3195 100.78 91.2373 100.88 91.174C100.979 91.1107 101.09 91.0676 101.206 91.0471C101.687 90.9491 102.157 91.2854 102.245 91.7743L105.36 109.445C105.381 109.561 105.378 109.68 105.353 109.795C105.327 109.91 105.279 110.019 105.212 110.116C105.144 110.212 105.059 110.294 104.959 110.358C104.86 110.421 104.749 110.464 104.633 110.485C104.581 110.494 104.528 110.499 104.475 110.498ZM96.2644 115.59C96.054 115.59 95.8504 115.515 95.6893 115.38C95.5282 115.244 95.4198 115.057 95.3831 114.849C95.3625 114.733 95.365 114.615 95.3905 114.5C95.4159 114.385 95.4637 114.276 95.5312 114.179C95.5988 114.083 95.6846 114 95.7839 113.937C95.8833 113.874 95.9941 113.831 96.1101 113.81L113.78 110.695C114.26 110.6 114.733 110.933 114.819 111.422C114.86 111.656 114.807 111.897 114.67 112.092C114.534 112.287 114.326 112.419 114.091 112.461L96.4222 115.576C96.3702 115.586 96.3173 115.591 96.2644 115.59Z" fill="black"/>
<path d="M99.8007 114.967C99.6795 114.967 99.5595 114.942 99.4481 114.895C99.3366 114.847 99.236 114.777 99.1524 114.69C99.0709 114.605 99.007 114.504 98.9643 114.394C98.9216 114.285 98.9009 114.167 98.9035 114.05C98.9061 113.932 98.9319 113.816 98.9795 113.708C99.027 113.6 99.0953 113.503 99.1805 113.421L103.857 108.953C104.216 108.61 104.786 108.624 105.126 108.981C105.207 109.066 105.271 109.167 105.314 109.276C105.357 109.386 105.377 109.503 105.375 109.621C105.372 109.739 105.346 109.855 105.299 109.963C105.251 110.071 105.183 110.168 105.098 110.25L100.421 114.718C100.254 114.878 100.032 114.967 99.8007 114.967Z" fill="black"/>
<path d="M110.402 113.097C110.278 113.097 110.155 113.071 110.042 113.022L104.117 110.423C103.9 110.327 103.729 110.149 103.642 109.927C103.556 109.705 103.561 109.458 103.656 109.24C103.854 108.787 104.389 108.585 104.839 108.779L110.763 111.378C110.981 111.474 111.152 111.652 111.238 111.874C111.325 112.096 111.32 112.343 111.224 112.561C111.154 112.72 111.039 112.856 110.893 112.951C110.747 113.047 110.577 113.097 110.402 113.097ZM87.8004 62.423C87.5899 62.4224 87.3863 62.3478 87.2252 62.2123C87.0642 62.0769 86.9558 61.8891 86.919 61.6819C86.8985 61.5659 86.901 61.447 86.9264 61.332C86.9519 61.217 86.9997 61.1081 87.0673 61.0116C87.1348 60.9151 87.2207 60.8329 87.32 60.7696C87.4194 60.7063 87.5302 60.6632 87.6462 60.6428L103.549 57.8392C104.024 57.7506 104.501 58.0775 104.588 58.5664C104.63 58.8006 104.576 59.0417 104.44 59.2365C104.303 59.4314 104.095 59.5641 103.861 59.6055L87.9581 62.4089C87.9061 62.4188 87.8533 62.4236 87.8004 62.423ZM105.981 72.5281H89.5842C89.4663 72.5282 89.3496 72.505 89.2407 72.4599C89.1319 72.4148 89.0329 72.3488 88.9496 72.2654C88.8663 72.1821 88.8002 72.0831 88.7552 71.9742C88.7102 71.8654 88.687 71.7487 88.6871 71.6308C88.687 71.513 88.7102 71.3963 88.7553 71.2875C88.8003 71.1786 88.8664 71.0797 88.9497 70.9964C89.033 70.9131 89.1319 70.847 89.2408 70.8019C89.3497 70.7569 89.4663 70.7337 89.5842 70.7338H105.981C106.099 70.7337 106.216 70.7568 106.325 70.8019C106.434 70.8469 106.533 70.913 106.616 70.9963C106.699 71.0796 106.765 71.1785 106.81 71.2874C106.855 71.3963 106.879 71.513 106.879 71.6308C106.879 71.7487 106.855 71.8654 106.81 71.9743C106.765 72.0832 106.699 72.1822 106.616 72.2655C106.533 72.3488 106.434 72.4149 106.325 72.46C106.216 72.505 106.099 72.5282 105.981 72.5281Z" fill="black"/>
<path d="M69.1334 77.9103C68.6375 77.9103 68.2275 77.5091 68.2275 77.0133C68.2275 76.5174 68.62 76.1162 69.1141 76.1162H69.1334C69.3712 76.1163 69.5993 76.2109 69.7675 76.3791C69.9357 76.5473 70.0303 76.7754 70.0304 77.0133C70.0303 77.2512 69.9357 77.4793 69.7675 77.6475C69.5993 77.8157 69.3712 77.9102 69.1334 77.9103ZM70.9277 81.499C70.4316 81.499 70.0217 81.0976 70.0217 80.6017C70.0217 80.1059 70.4141 79.7047 70.9084 79.7047H70.9277C71.1656 79.7048 71.3937 79.7994 71.5619 79.9676C71.7301 80.1358 71.8246 80.3639 71.8248 80.6017C71.8246 80.8396 71.7301 81.0678 71.5619 81.236C71.3937 81.4043 71.1656 81.4989 70.9277 81.499Z" fill="black"/>
<path d="M72.9542 89.3488C72.6755 89.3488 72.4022 89.3259 72.1359 89.2788C70.077 88.9177 68.0832 87.0585 66.8006 84.3059C65.4443 81.3991 65.0308 77.9051 65.637 74.4689L68.4422 58.5659L70.2085 58.8778L67.4031 74.7808C66.8619 77.8577 67.2245 80.9714 68.4265 83.549C69.4463 85.7358 70.9866 87.2549 72.448 87.5125C73.9058 87.7597 75.8752 86.8694 77.5802 85.1626C79.5918 83.151 80.997 80.3494 81.54 77.2725L84.3454 61.3693L86.1115 61.6814L83.3063 77.5844C82.7019 81.0187 81.1178 84.1605 78.8486 86.4314C76.9807 88.3009 74.8361 89.3488 72.9542 89.3488ZM68.5544 110.498C68.4232 110.498 68.2936 110.47 68.1747 110.415C68.0558 110.359 67.9504 110.279 67.8661 110.178C67.7817 110.078 67.7204 109.96 67.6864 109.834C67.6525 109.707 67.6468 109.574 67.6697 109.445L70.7851 91.7741C70.8711 91.2852 71.3459 90.9488 71.8242 91.0469C71.9402 91.0673 72.051 91.1105 72.1503 91.1738C72.2496 91.2371 72.3355 91.3193 72.403 91.4158C72.4705 91.5123 72.5183 91.6212 72.5438 91.7361C72.5692 91.8511 72.5717 91.97 72.5512 92.086L69.4357 109.757C69.3989 109.964 69.2905 110.152 69.1294 110.288C68.9683 110.423 68.7648 110.497 68.5544 110.498ZM76.765 115.59C76.7125 115.59 76.66 115.587 76.6075 115.576L58.938 112.461C58.4511 112.375 58.1251 111.911 58.211 111.422C58.2969 110.933 58.7717 110.602 59.2501 110.695L76.9194 113.81C77.1401 113.849 77.3383 113.969 77.4747 114.147C77.6112 114.325 77.6762 114.548 77.6568 114.771C77.6375 114.994 77.5352 115.202 77.3701 115.354C77.2051 115.505 76.9892 115.59 76.765 115.59Z" fill="black"/>
<path d="M73.2284 114.967C72.9973 114.967 72.7749 114.878 72.608 114.718L67.9313 110.25C67.8462 110.168 67.7779 110.071 67.7304 109.963C67.6829 109.855 67.6571 109.739 67.6545 109.621C67.6519 109.503 67.6726 109.386 67.7153 109.276C67.758 109.167 67.822 109.066 67.9035 108.981C67.9849 108.896 68.0823 108.828 68.1902 108.78C68.298 108.733 68.4141 108.707 68.5319 108.704C68.6497 108.702 68.7668 108.722 68.8767 108.765C68.9865 108.808 69.0868 108.872 69.1719 108.953L73.8486 113.421C73.9781 113.545 74.0676 113.705 74.1055 113.88C74.1434 114.055 74.128 114.237 74.0613 114.404C73.9946 114.57 73.8796 114.712 73.7311 114.813C73.5827 114.913 73.4076 114.967 73.2284 114.967Z" fill="black"/>
<path d="M62.6277 113.097C62.4534 113.097 62.2828 113.047 62.1368 112.951C61.9909 112.856 61.8758 112.72 61.8058 112.561C61.7105 112.343 61.7054 112.096 61.7918 111.874C61.8782 111.652 62.049 111.474 62.2667 111.378L68.1909 108.78C68.6446 108.585 69.1757 108.786 69.3736 109.24C69.4691 109.458 69.4742 109.705 69.3878 109.927C69.3015 110.149 69.1307 110.327 68.913 110.423L62.9887 113.022C62.8748 113.071 62.7519 113.097 62.6277 113.097ZM85.2293 62.4231C85.1768 62.4231 85.1241 62.4195 85.0716 62.4092L69.1686 59.6058C68.9344 59.5643 68.7263 59.4316 68.5899 59.2367C68.4535 59.0419 68.4001 58.8009 68.4413 58.5667C68.5273 58.0775 69.0003 57.7517 69.4804 57.8395L85.3837 60.6431C85.4997 60.6635 85.6105 60.7066 85.7098 60.7699C85.8091 60.8332 85.895 60.9155 85.9625 61.012C86.03 61.1085 86.0778 61.2173 86.1033 61.3323C86.1287 61.4473 86.1312 61.5662 86.1107 61.6822C86.0738 61.8894 85.9654 62.0771 85.8043 62.2125C85.6433 62.3479 85.4397 62.4224 85.2293 62.4231ZM84.078 68.9394H67.6809C67.1851 68.9394 66.7839 68.538 66.7839 68.0422C66.7839 67.5463 67.1851 67.1451 67.6809 67.1451H84.078C84.5741 67.1451 84.9753 67.5463 84.9753 68.0422C84.9753 68.538 84.5741 68.9394 84.078 68.9394Z" fill="black"/>
</svg>
